<svg width="23" height="24" viewBox="0 0 23 24" fill="none" xmlns="http://www.w3.org/2000/svg">
<path d="M22.3561 15.4631L20.6112 14.0671C20.9065 12.698 20.9065 11.302 20.6112 9.93289L22.3561 8.53691C22.6514 8.2953 22.732 7.86577 22.544 7.51678L21.0675 4.85906C20.8796 4.51007 20.4769 4.34899 20.1011 4.48322L18.0071 5.20805C16.8796 4.10738 15.5105 3.30201 14.0071 2.87248L13.6313 0.671141C13.5776 0.268456 13.2286 0 12.8259 0H9.79236C9.38968 0 9.04069 0.268456 8.987 0.671141L8.638 2.87248C7.13465 3.32886 5.76552 4.13423 4.638 5.2349L2.54404 4.48322C2.1682 4.34899 1.76552 4.51007 1.5776 4.85906L0.10109 7.51678C-0.0868296 7.86577 -0.00629272 8.2953 0.315855 8.53691L2.06082 9.93289C1.76552 11.302 1.76552 12.698 2.06082 14.0671L0.289009 15.4631C-0.00629277 15.7047 -0.0868296 16.1342 0.10109 16.4832L1.5776 19.1409C1.76552 19.4899 2.1682 19.651 2.54404 19.5168L4.638 18.7919C5.76552 19.8926 7.13465 20.698 8.638 21.1275L9.01384 23.3289C9.06753 23.7315 9.41653 24 9.81921 24H12.8528C13.2555 24 13.6044 23.7315 13.6581 23.3289L14.0071 21.1275C15.5105 20.6711 16.8796 19.8658 18.0071 18.7651L20.1011 19.5168C20.4769 19.651 20.8796 19.4899 21.0675 19.1409L22.544 16.4832C22.732 16.1342 22.6514 15.7047 22.3561 15.4631ZM11.3226 17.4228C8.31585 17.4228 5.89975 15.0067 5.89975 12C5.89975 8.99329 8.31585 6.57718 11.3226 6.57718C14.3293 6.57718 16.7454 8.99329 16.7454 12C16.7185 14.9799 14.3024 17.396 11.3226 17.4228Z" fill="white"/>
</svg>
