<svg width="22" height="24" viewBox="0 0 22 24" fill="none" xmlns="http://www.w3.org/2000/svg">
<path d="M2.8125 9.14061V6.32811C2.8125 6.21505 2.82872 6.10625 2.84587 5.99792C1.9912 6.48097 1.40625 7.38744 1.40625 8.43749C1.40625 9.56797 2.08003 10.5381 3.04392 10.9846C2.89823 10.3925 2.8125 9.77704 2.8125 9.14061Z" fill="white"/>
<path d="M10.5469 16.875C9.4007 16.875 8.31728 16.6143 7.33801 16.1647C7.49336 16.5202 7.69318 16.8578 7.96576 17.1524C9.26903 18.5607 11.6805 18.6067 13.0339 17.2506C13.3525 16.9317 13.5978 16.5602 13.7714 16.1584C12.7883 16.6124 11.6991 16.875 10.5469 16.875Z" fill="white"/>
<path d="M17.7869 15.9274C17.7415 15.9116 17.6948 15.9006 17.6468 15.8944L15.3876 15.6008C15.2181 16.5964 14.7571 17.516 14.0288 18.2449C13.0991 19.1752 11.8625 19.6875 10.5469 19.6875C9.17976 19.6875 7.86276 19.1114 6.93375 18.1075C6.27525 17.3957 5.86894 16.5291 5.71101 15.5999L3.44766 15.8938C3.39961 15.9 3.35292 15.9109 3.30689 15.9267C1.32867 16.6154 0 18.4858 0 20.5808V23.2969C0 23.6855 0.314484 24 0.703125 24H20.3906C20.7793 24 21.0937 23.6855 21.0937 23.2969V20.5794C21.0937 18.4852 19.7651 16.6154 17.7869 15.9274ZM17.5781 21.0937H14.7656C14.377 21.0937 14.0625 20.7792 14.0625 20.3906C14.0625 20.002 14.377 19.6875 14.7656 19.6875H17.5781C17.9668 19.6875 18.2812 20.002 18.2812 20.3906C18.2812 20.7792 17.9668 21.0937 17.5781 21.0937Z" fill="white"/>
<path d="M6.05969 7.03125L6.56847 8.04886C6.688 8.28848 6.92899 8.4375 7.19749 8.4375H13.8964C14.1649 8.4375 14.4059 8.28848 14.5254 8.04886L15.0342 7.03125H6.05969Z" fill="white"/>
<path d="M11.9531 0H9.14062C6.42698 0 4.21875 2.20823 4.21875 4.92187V5.625H16.875V4.92187C16.875 2.20823 14.6668 0 11.9531 0ZM10.5469 4.21875C10.1586 4.21875 9.84375 3.90394 9.84375 3.51562C9.84375 3.12722 10.1586 2.8125 10.5469 2.8125C10.9352 2.8125 11.25 3.12722 11.25 3.51562C11.25 3.90394 10.9352 4.21875 10.5469 4.21875Z" fill="white"/>
<path d="M16.6065 7.03125L15.7832 8.67783C15.4234 9.39675 14.7004 9.84375 13.8963 9.84375H7.19742C6.39337 9.84375 5.67033 9.39675 5.31052 8.67783C5.31052 8.67783 4.96791 7.99256 4.72472 7.50619C4.59094 7.23863 4.48725 7.03125 4.48725 7.03125H4.21875V9.14062C4.21875 12.6301 7.05736 15.4687 10.5469 15.4687C14.0739 15.4687 16.875 12.5833 16.875 9.14062V7.03125H16.6065Z" fill="white"/>
<path d="M18.2357 5.89511C18.2651 6.03503 18.2812 6.17964 18.2812 6.32814V9.14064C18.2812 9.80599 18.1879 10.4485 18.0291 11.0651C19.0978 10.6662 19.8646 9.64375 19.8646 8.43752C19.8646 7.31055 19.1947 6.34352 18.2357 5.89511Z" fill="white"/>
</svg>
