<svg width="24" height="23" viewBox="0 0 24 23" fill="none" xmlns="http://www.w3.org/2000/svg">
<path d="M23.5971 10.0994L19.9598 6.46208V2.26036C19.9598 1.50063 19.3442 0.884932 18.5833 0.884932C17.8242 0.884932 17.2086 1.50063 17.2086 2.26036V3.71088L14.5003 1.00251C13.1613 -0.33576 10.8333 -0.333386 9.49731 1.00493L0.402658 10.0994C-0.134219 10.6373 -0.134219 11.5078 0.402658 12.0449C0.939778 12.5827 1.8119 12.5827 2.34883 12.0449L11.4426 2.95018C11.7389 2.65549 12.261 2.65549 12.5557 2.94931L21.651 12.0449C21.9207 12.3138 22.2723 12.4476 22.6239 12.4476C22.9761 12.4476 23.3283 12.3137 23.5972 12.0449C24.1343 11.5078 24.1343 10.6374 23.5971 10.0994Z" fill="white"/>
<path d="M12.4778 5.56107C12.2136 5.29699 11.7857 5.29699 11.5223 5.56107L3.52261 13.5584C3.39631 13.6846 3.32471 13.857 3.32471 14.0369V19.8698C3.32471 21.2386 4.43451 22.3483 5.8032 22.3483H9.76384V16.2146H14.2354V22.3483H18.196C19.5647 22.3483 20.6745 21.2386 20.6745 19.8699V14.0369C20.6745 13.857 20.6035 13.6846 20.4766 13.5584L12.4778 5.56107Z" fill="white"/>
</svg>
