<svg width="24" height="24" viewBox="0 0 24 24" fill="none" xmlns="http://www.w3.org/2000/svg">
<g clip-path="url(#clip0)">
<path d="M6.47333 20.8452C7.19287 21.5648 8.36087 21.5648 9.08041 20.8452L18.0056 11.9201C18.2618 11.6638 18.459 11.3582 18.5871 11.033C19.4841 11.2843 20.3564 11.4174 21.1252 11.4124C23.0275 11.4026 23.6583 10.5697 23.8653 10.0719C24.0723 9.57911 24.2202 8.54416 22.8846 7.18395C22.8698 7.16916 22.855 7.15438 22.8402 7.13959C22.0123 6.31164 20.8098 5.54775 19.4446 4.98099C19.1933 4.8775 18.9419 4.78386 18.6955 4.69515V4.68036C18.6807 3.58628 17.7986 2.70411 16.7045 2.68932L11.3573 2.6154C10.6476 2.60554 9.9675 2.88153 9.46974 3.38422L0.53965 12.3094C-0.179883 13.0289 -0.179883 14.1969 0.53965 14.9165L6.47333 20.8452ZM13.3533 5.80895C13.9496 5.21262 14.9155 5.21262 15.5118 5.80895C15.8667 6.16379 16.0096 6.65169 15.9406 7.11002C16.5271 7.524 17.2269 7.90841 17.976 8.21889C18.2421 8.32732 18.4984 8.42588 18.7448 8.50966L18.7152 6.36092C18.7596 6.38063 18.799 6.39542 18.8434 6.41513C20.0114 6.90303 21.0611 7.56343 21.7363 8.23861C21.7462 8.24846 21.756 8.25832 21.7659 8.26818C22.4065 8.92364 22.4755 9.34255 22.4213 9.47069C22.2538 9.86988 20.4549 10.2247 17.7247 9.08628C16.9263 8.75115 16.1772 8.33717 15.571 7.8887C15.5513 7.91334 15.5266 7.93798 15.5069 7.96262C14.9106 8.55895 13.9446 8.55895 13.3483 7.96262C12.7569 7.37122 12.7569 6.40527 13.3533 5.80895Z" fill="white"/>
</g>
<defs>
<clipPath id="clip0">
<rect width="24" height="24" fill="white"/>
</clipPath>
</defs>
</svg>
